<?xml version="1.0" standalone="no"?>
<!DOCTYPE svg PUBLIC "-//W3C//DTD SVG 20010904//EN"
 "http://www.w3.org/TR/2001/REC-SVG-20010904/DTD/svg10.dtd">
<svg version="1.0" xmlns="http://www.w3.org/2000/svg"
 width="500.000000pt" height="500.000000pt" viewBox="0 0 500.000000 500.000000"
 preserveAspectRatio="xMidYMid meet">

<g transform="translate(0.000000,500.000000) scale(0.100000,-0.100000)"
fill="#000000" stroke="none">
<path d="M2338 3807 c-208 -71 -338 -256 -338 -482 0 -186 60 -289 263 -454
130 -105 166 -147 196 -227 28 -72 52 -71 79 3 27 75 67 121 196 227 164 135
218 207 251 333 28 109 16 226 -36 341 -20 46 -49 84 -101 136 -107 106 -203
146 -353 146 -67 0 -107 -6 -157 -23z m253 -170 c95 -50 149 -163 149 -310 0
-102 -22 -172 -74 -240 -34 -45 -116 -87 -170 -87 -157 0 -276 208 -236 412
38 195 190 299 331 225z"/>
<path d="M2424 3581 c-109 -67 -148 -265 -80 -405 22 -45 78 -106 97 -106 2 0
2 42 1 93 -3 84 -1 99 27 170 33 82 42 187 21 241 -11 31 -25 32 -66 7z"/>
<path d="M2555 3488 c0 -91 -3 -110 -28 -165 -15 -34 -30 -85 -34 -112 -6 -50
12 -151 27 -151 45 0 104 55 139 130 33 72 36 188 6 270 -18 49 -82 130 -102
130 -5 0 -8 -46 -8 -102z"/>
<path d="M1095 1931 c-45 -11 -69 -26 -103 -65 -86 -98 -53 -265 62 -317 55
-25 129 -24 183 2 41 20 83 64 83 88 0 21 -49 11 -65 -13 -9 -13 -31 -31 -50
-40 -131 -63 -258 78 -197 217 27 61 69 87 141 87 47 0 57 -4 88 -35 33 -33
83 -48 83 -25 0 26 -65 81 -113 95 -55 16 -66 17 -112 6z"/>
<path d="M1942 1930 c-85 -20 -141 -88 -150 -181 -22 -234 315 -306 388 -83
17 49 7 136 -20 179 -40 64 -141 104 -218 85z m144 -71 c107 -98 43 -289 -96
-289 -132 0 -200 178 -107 279 32 34 55 41 119 38 45 -3 64 -9 84 -28z"/>
<path d="M2381 1925 c-84 -27 -133 -98 -133 -195 0 -73 29 -131 83 -167 79
-52 207 -39 264 28 32 38 32 59 1 59 -14 0 -30 -10 -41 -26 -9 -14 -32 -32
-50 -40 -106 -44 -208 30 -208 150 0 99 55 156 150 156 46 0 58 -4 92 -35 38
-35 81 -47 81 -22 0 15 -55 69 -85 85 -36 18 -108 22 -154 7z"/>
<path d="M1410 1730 l0 -200 25 0 c25 0 25 1 25 90 l0 90 100 0 100 0 0 -90
c0 -89 0 -90 25 -90 l25 0 0 200 0 200 -25 0 c-25 0 -25 -1 -25 -90 l0 -90
-100 0 -100 0 0 90 c0 89 0 90 -25 90 l-25 0 0 -200z"/>
<path d="M2825 1918 c-61 -165 -135 -372 -135 -379 0 -5 10 -9 23 -9 18 0 26
9 37 43 l15 42 92 3 91 3 14 -43 c12 -35 19 -44 43 -46 20 -3 26 0 23 10 -3 7
-36 97 -73 201 -67 184 -69 187 -97 187 -16 0 -31 -6 -33 -12z m74 -162 c17
-49 30 -91 27 -93 -2 -2 -35 -3 -73 -1 l-69 3 35 98 c18 54 37 94 42 90 4 -4
21 -48 38 -97z"/>
<path d="M3100 1731 l0 -201 25 0 c25 0 25 1 25 85 l0 85 55 0 c103 0 155 39
155 117 0 33 -7 50 -29 75 -29 33 -31 33 -130 36 l-101 4 0 -201z m188 143
c16 -11 22 -25 22 -55 0 -59 -25 -79 -100 -79 l-60 0 0 75 0 75 58 0 c36 0 66
-6 80 -16z"/>
<path d="M3430 1730 l0 -200 25 0 c25 0 25 1 25 90 l0 90 105 0 105 0 0 -90
c0 -89 0 -90 25 -90 l25 0 0 200 0 200 -25 0 c-25 0 -25 -1 -25 -90 l0 -91
-102 3 -103 3 -3 88 c-3 85 -3 87 -27 87 l-25 0 0 -200z"/>
<path d="M3840 1730 l0 -200 105 0 c98 0 105 1 105 20 0 18 -7 20 -80 20 l-80
0 0 70 0 70 70 0 c63 0 70 2 70 20 0 18 -7 20 -70 20 l-70 0 0 70 0 70 80 0
c73 0 80 2 80 20 0 19 -7 20 -105 20 l-105 0 0 -200z"/>
</g>
</svg>
